#!OML:ASF C:\ViconDB\ViconDB\414\Spring2016\041811\Spring2016.ASF
:FULLY-SPECIFIED
:DEGREES
200
root 11.1769 17.7983 18.811 -9.26675 -86.019 9.57155
lowerback 1.82916 -0.751353 -5.42251
upperback 0.124116 -1.12388 -0.323594
thorax -0.801192 -0.546664 2.73357
lowerneck 5.6428 -11.8557 -27.1814
upperneck 18.3457 -23.8847 27.3071
head 12.0616 -12.5941 11.9219
rclavicle 7.22458e-015 0
rhumerus -2.75499 -25.4396 -2.17445
rradius 68.1541
rwrist 17.5259
rhand -55.5409 -21.5009
rfingers 7.12502
rthumb -27.8974 -49.449
lclavicle 7.22458e-015 0
lhumerus -11.4209 9.51322 2.32398
lradius 44.5963
lwrist 6.26261
lhand -44.8846 36.1299
lfingers 7.12502
lthumb -17.6726 65.3468
rfemur 166.514 23.7423 -179.175
rtibia 31.4452
rfoot -4.13375 -45.4949
rtoes -29.6029
lfemur -12.3142 -8.58441 -10.7406
ltibia 38.6303
lfoot -30.5324 8.99735
ltoes -14.6045
201
root 11.1908 17.7955 18.8143 -11.3578 -85.9844 11.6463
lowerback 1.96381 -0.728361 -5.581
upperback 0.16076 -1.10473 -0.32175
thorax -0.837713 -0.536512 2.82571
lowerneck 5.36623 -11.756 -27.0462
upperneck 18.7522 -23.7942 27.296
head 12.223 -12.5325 11.9329
rclavicle -2.03692e-014 -1.59028e-014
rhumerus -2.77242 -25.5633 -2.15292
rradius 68.1967
rwrist 17.5086
rhand -55.4946 -21.4266
rfingers 7.12502
rthumb -27.8532 -49.3818
lclavicle -2.03692e-014 -1.59028e-014
lhumerus -11.406 9.67457 2.42294
lradius 44.5312
lwrist 6.09949
lhand -44.8083 36.2508
lfingers 7.12502
lthumb -17.5992 65.4743
rfemur 166.544 23.9863 -179.357
rtibia 31.4215
rfoot -4.33865 -45.6005
rtoes -29.4453
lfemur -12.45 -8.36194 -10.9047
ltibia 38.7166
lfoot -30.3831 8.97523
ltoes -14.8513
202
root 11.2008 17.7954 18.8181 -7.93098 -86.0098 8.14322
lowerback 2.11616 -0.709948 -5.37454
upperback 0.204427 -1.08142 -0.193779
thorax -0.881524 -0.524588 2.84346
lowerneck 5.02041 -11.6598 -26.8947
upperneck 19.2442 -23.7065 27.2394
head 12.4243 -12.4673 11.9218
rclavicle 2.47238e-015 2.78299e-015
rhumerus -2.81552 -25.6939 -2.09905
rradius 68.2041
rwrist 17.7518
rhand -55.4391 -21.6591
rfingers 7.12502
rthumb -27.8 -49.6229
lclavicle 2.47238e-015 2.78299e-015
lhumerus -11.4263 9.78528 2.504
lradius 44.5192
lwrist 6.11109
lhand -44.8005 36.2946
lfingers 7.12502
lthumb -17.5917 65.5188
rfemur 166.526 23.6826 -179.125
rtibia 31.3778
rfoot -4.00022 -45.5391
rtoes -29.5342
lfemur -12.498 -8.15808 -10.6109
ltibia 38.8165
lfoot -30.3134 8.77561
ltoes -14.8519
203
root 11.2144 17.792 18.8258 -9.9067 -85.9668 10.1117
lowerback 2.22499 -0.681695 -5.48877
upperback 0.251594 -1.05273 -0.20684
thorax -0.894776 -0.510721 2.8946
lowerneck 4.66825 -11.6036 -26.659
upperneck 19.694 -23.6647 27.1741
head 12.6144 -12.4148 11.8765
rclavicle -3.72721e-017 -7.95139e-016
rhumerus -2.92886 -25.7615 -2.03452
rradius 68.2723
rwrist 17.6301
rhand -55.3891 -21.9577
rfingers 7.12502
rthumb -27.7523 -49.9292
lclavicle -3.72721e-017 -7.95139e-016
lhumerus -11.3048 10.0586 2.60594
lradius 44.3729
lwrist 5.99436
lhand -44.7197 36.2222
lfingers 7.12502
lthumb -17.5139 65.4533
rfemur 166.564 24.2534 -179.3
rtibia 31.3399
rfoot -4.59762 -45.6575
rtoes -29.199
lfemur -12.5642 -8.04974 -10.7591
ltibia 38.923
lfoot -30.3358 8.50046
ltoes -14.5961
204
root 11.2274 17.7894 18.8311 -10.6353 -85.889 10.8204
lowerback 2.36897 -0.667461 -5.54462
upperback 0.2813 -1.04366 -0.191314
thorax -0.944496 -0.505337 2.9437
lowerneck 4.34585 -11.5016 -26.4058
upperneck 20.1228 -23.5665 27.1405
head 12.7747 -12.3379 11.8597
rclavicle -9.97651e-015 1.59028e-015
rhumerus -3.04415 -25.9001 -2.01861
rradius 68.3642
rwrist 17.5727
rhand -55.3413 -21.6933
rfingers 7.12502
rthumb -27.7066 -49.6722
lclavicle -9.97651e-015 1.59028e-015
lhumerus -11.3175 10.0729 2.6441
lradius 44.4907
lwrist 6.21113
lhand -44.6469 36.0158
lfingers 7.12502
lthumb -17.4438 65.2531
rfemur 166.568 24.418 -179.409
rtibia 31.2971
rfoot -4.65508 -45.7184
rtoes -29.1361
lfemur -12.6789 -7.9333 -10.8192
ltibia 39.0408
lfoot -30.365 8.36376
ltoes -14.5102
205
root 11.2436 17.7875 18.836 -8.33298 -85.895 8.45452
lowerback 2.60558 -0.635295 -5.35345
upperback 0.32417 -1.00822 -0.123606
thorax -1.03832 -0.486423 2.90863
lowerneck 4.02776 -11.4043 -26.1534
upperneck 20.4533 -23.4867 27.2157
head 12.9248 -12.2672 11.8841
rclavicle 1.60022e-014 -3.97569e-016
rhumerus -3.19668 -25.9792 -1.97349
rradius 68.4249
rwrist 17.4536
rhand -55.3103 -21.5247
rfingers 7.12502
rthumb -27.677 -49.5083
lclavicle 1.60022e-014 -3.97569e-016
lhumerus -11.3316 9.98325 2.65978
lradius 44.5955
lwrist 6.39226
lhand -44.7879 36.3354
lfingers 7.12502
lthumb -17.5795 65.5606
rfemur 166.566 24.4989 -179.258
rtibia 31.2587
rfoot -4.7019 -45.7831
rtoes -29.0263
lfemur -12.7823 -7.68062 -10.6048
ltibia 39.1755
lfoot -30.3252 8.09267
ltoes -14.4189
206
root 11.2605 17.7812 18.8445 -10.0809 -85.9225 10.2712
lowerback 2.68921 -0.599317 -5.37623
upperback 0.357129 -0.966274 -0.160516
thorax -1.05533 -0.465915 2.88299
lowerneck 3.60267 -11.3817 -25.709
upperneck 20.8445 -23.4161 27.0205
head 13.0416 -12.1737 11.7336
rclavicle 4.22417e-016 -9.14409e-015
rhumerus -3.28956 -26.1484 -2.03787
rradius 68.4451
rwrist 17.4978
rhand -55.3358 -21.8115
rfingers 7.12502
rthumb -27.7013 -49.7912
lclavicle 4.22417e-016 -9.14409e-015
lhumerus -11.3465 10.0919 2.61038
lradius 44.5583
lwrist 6.21496
lhand -44.6466 36.0821
lfingers 7.12502
lthumb -17.4435 65.3194
rfemur 166.719 25.2168 -179.352
rtibia 31.2291
rfoot -5.32033 -45.9861
rtoes -28.2559
lfemur -13.0558 -7.34794 -10.7378
ltibia 39.3304
lfoot -30.1087 7.99935
ltoes -14.5369
